# xmcd
#
# Track frame offsets: 
#        150
#        18200
#        38347
#        59795
#        76672
#        90900
#        104812
#        123232
#        140245
#        161720
#        176902
#        193847
#
# Disc length: 2779 seconds
#
# Revision: 0
# Processed by: cddbd v1.5.2PL0 Copyright (c) Steve Scherf et al.
# Submitted via: ExactAudioCopy v0.95b3
#
DISCID=a00ad90c
DTITLE=Jintara - 01 Mor lam sa on Rak salai dawk fai ban
DYEAR=1999
DGENRE=Mor lam
TTITLE0=Rak salai dawk fai ban
TTITLE1=Yuen sao bon Khao Phanom Rung
TTITLE2=Luem jai wai Mukdahan
TTITLE3=Daeng thong pi ya ting
TTITLE4=Pit rue ti pen noi
TTITLE5=Bua la na khi gratai
TTITLE6=Saita jaochu
TTITLE7=Rak pi glua ni sahagon
TTITLE8=Khat ti khaw pen sot
TTITLE9=Pi man ran khai tep
TTITLE10=Khonjon pi mai naem
TTITLE11=Hae tian sanya toe
EXTD=
EXTT0=
EXTT1=
EXTT2=
EXTT3=
EXTT4=
EXTT5=
EXTT6=
EXTT7=
EXTT8=
EXTT9=
EXTT10=
EXTT11=
PLAYORDER=
